HIERARCHY
ROOT Hips
{
	OFFSET 0.000000 88.474243 0.000000
	CHANNELS 6 Xposition Yposition Zposition Zrotation Yrotation Xrotation 
	JOINT Hips_Spine
	{
		OFFSET 0.000000 0.000000 0.000000
		CHANNELS 3 Zrotation Yrotation Xrotation
		JOINT Spine
		{
			OFFSET 0.005100 8.711998 -0.691000
			CHANNELS 3 Zrotation Yrotation Xrotation
			JOINT Spine1
			{
				OFFSET -0.009200 8.660301 -1.275000
				CHANNELS 3 Zrotation Yrotation Xrotation
				JOINT Spine2
				{
					OFFSET 0.006300 9.852501 -1.857000
					CHANNELS 3 Zrotation Yrotation Xrotation
					JOINT Spine2_Neck
					{
						OFFSET 0.000000 0.000000 0.000000
						CHANNELS 3 Zrotation Yrotation Xrotation
						JOINT Neck
						{
							OFFSET 0.016300 11.420799 -0.263300
							CHANNELS 3 Zrotation Yrotation Xrotation
							End Site #name: Head
							{
								OFFSET -0.019200 9.262405 2.362500
							}
						}
					}
					JOINT Spine2_LeftShoulder
					{
						OFFSET 0.000000 0.000000 0.000000
						CHANNELS 3 Zrotation Yrotation Xrotation
						JOINT LeftShoulder
						{
							OFFSET 5.616900 6.732201 -0.345700
							CHANNELS 3 Zrotation Yrotation Xrotation
							JOINT LeftArm
							{
								OFFSET 10.664888 -0.183372 -2.440700
								CHANNELS 3 Zrotation Yrotation Xrotation
								JOINT LeftForeArm
								{
									OFFSET 27.459126 0.000000 0.000000
									CHANNELS 3 Zrotation Yrotation Xrotation
									End Site #name: LeftHand
									{
										OFFSET 21.306858 0.000000 0.000000
									}
								}
							}
						}
					}
					JOINT Spine2_RightShoulder
					{
						OFFSET 0.000000 0.000000 0.000000
						CHANNELS 3 Zrotation Yrotation Xrotation
						JOINT RightShoulder
						{
							OFFSET -5.580300 6.737503 -0.344400
							CHANNELS 3 Zrotation Yrotation Xrotation
							JOINT RightArm
							{
								OFFSET -10.679335 -0.188484 -2.383900
								CHANNELS 3 Zrotation Yrotation Xrotation
								JOINT RightForeArm
								{
									OFFSET -27.503529 0.000000 0.000000
									CHANNELS 3 Zrotation Yrotation Xrotation
									End Site #name: RightHand
									{
										OFFSET -21.306808 0.000000 0.000000
									}
								}
							}
						}
					}
				}
			}
		}
	}
	JOINT Hips_LeftUpLeg
	{
		OFFSET 0.000000 0.000000 0.000000
		CHANNELS 3 Zrotation Yrotation Xrotation
		JOINT LeftUpLeg
		{
			OFFSET 6.857700 -6.739601 0.312100
			CHANNELS 3 Zrotation Yrotation Xrotation
			JOINT LeftLeg
			{
				OFFSET -0.367590 -34.731552 -4.572400
				CHANNELS 3 Zrotation Yrotation Xrotation
				End Site #name: LeftFoot
				{
					OFFSET 0.367590 -34.656704 -6.067400
				}
			}
		}
	}
	JOINT Hips_RightUpLeg
	{
		OFFSET 0.000000 0.000000 0.000000
		CHANNELS 3 Zrotation Yrotation Xrotation
		JOINT RightUpLeg
		{
			OFFSET -6.876100 -6.733299 0.301000
			CHANNELS 3 Zrotation Yrotation Xrotation
			JOINT RightLeg
			{
				OFFSET 0.347353 -34.795158 -4.515900
				CHANNELS 3 Zrotation Yrotation Xrotation
				End Site #name: RightFoot
				{
					OFFSET -0.347353 -34.589367 -6.070300
				}
			}
		}
	}
}
MOTION
Frames: 7
Frame Time: 0.041667
10.646792 40.082789 -12.551723 -20.614454 -18.052654 72.964358 -0.000000 0.000000 0.000000 6.336587 1.934273 20.661805 -0.904954 1.956567 3.586557 0.000000 0.000000 0.000000 0.593623 -0.169671 2.578144 -3.892281 2.099489 -6.702777 -0.250043 0.065689 6.865563 3.672065 -14.613815 -0.146433 -45.563641 -15.563039 -4.105989 1.724468 -59.681179 4.757587 -0.719445 0.732131 4.180815 0.086177 30.212592 1.184200 8.746123 36.020888 -48.557876 2.945492 53.284654 4.163594 0.000000 -0.000000 0.000000 0.536973 -1.615553 -36.629527 -1.343933 -5.749779 44.952070 0.000000 -0.000000 0.000000 -2.148407 -16.638809 -74.509437 -2.212375 0.171693 84.645096 
10.642202 40.935823 -12.986435 -21.155909 -18.482315 72.824575 -0.000000 0.000000 0.000000 6.248623 1.963664 20.924124 -0.882686 1.967363 3.806173 0.000000 0.000000 0.000000 0.555937 -0.444716 3.064979 -3.828010 1.591739 -6.306499 -0.332338 0.145988 7.112170 3.641768 -14.439688 -0.195856 -44.516957 -16.034775 -7.227207 2.239330 -53.936478 4.001638 -0.737802 0.639204 4.556805 0.253857 30.645315 0.814094 5.066084 36.530797 -52.515075 2.520766 52.057303 3.616108 0.000000 -0.000000 0.000000 0.148029 -1.926617 -37.593710 -1.491184 -6.041388 46.456127 0.000000 -0.000000 0.000000 -0.225365 -18.532106 -80.481005 -2.226128 0.663767 87.862274 
10.479772 41.653749 -13.427312 -21.570655 -19.159631 72.905936 -0.000000 0.000000 0.000000 6.201890 1.906208 21.307788 -0.865017 1.950174 4.034832 0.000000 0.000000 0.000000 0.529877 -0.726459 3.798594 -3.691995 1.120303 -5.604728 -0.428079 0.186308 7.397479 3.829792 -14.480884 -0.274664 -43.034918 -17.211262 -11.046268 2.639712 -48.420907 3.381973 -0.737720 0.507202 5.070545 0.582588 31.249018 0.524397 1.116946 36.907345 -56.227302 2.237360 50.399755 3.198747 0.000000 -0.000000 0.000000 -0.023822 -2.146678 -39.009210 -1.787741 -6.450512 47.318048 -0.000000 -0.000000 0.000000 2.301585 -20.124328 -85.672010 -2.471613 1.090068 90.340560 
10.178598 42.239994 -13.894635 -21.718106 -19.858540 73.107307 -0.000000 0.000000 0.000000 6.187949 1.794767 21.865641 -0.848369 1.912738 4.255238 0.000000 0.000000 0.000000 0.521408 -1.016870 4.761501 -3.473303 0.686751 -4.631852 -0.519100 0.179026 7.707046 4.198401 -14.717109 -0.398787 -40.978790 -19.155218 -15.409439 2.984728 -43.619659 2.860437 -0.757315 0.358453 5.530243 1.097615 32.140503 0.329690 -2.956113 37.078670 -59.500638 2.073470 48.469697 2.935548 0.000000 -0.000000 0.000000 -0.079579 -2.130508 -40.880865 -2.204375 -6.893109 47.641124 -0.000000 -0.000000 0.000000 5.181727 -22.046613 -90.952387 -2.789871 1.429159 92.220242 
9.762128 42.664356 -14.375549 -21.413243 -20.434648 73.265703 -0.000000 0.000000 0.000000 6.215483 1.648054 22.549753 -0.825702 1.857320 4.469893 0.000000 0.000000 0.000000 0.532836 -1.314888 5.945462 -3.168432 0.306555 -3.363877 -0.602925 0.123986 8.022859 4.809834 -15.165001 -0.585748 -38.220372 -21.667533 -20.294191 3.315504 -40.057869 2.386396 -0.786405 0.189271 5.931239 1.797555 33.310133 0.291485 -6.728797 36.851119 -62.700212 2.031681 46.441344 2.862840 0.000000 -0.000000 0.000000 -0.146949 -1.965411 -43.325024 -2.563937 -7.224526 47.770985 -0.000000 -0.000000 0.000000 8.253490 -24.126462 -96.291830 -3.373409 1.692399 93.899907 
9.269595 42.899996 -14.890479 -20.677019 -20.607932 73.550908 -0.000000 0.000000 0.000000 6.235150 1.489191 23.273801 -0.812360 1.785726 4.642512 0.000000 0.000000 0.000000 0.530561 -1.496570 6.929438 -2.693530 0.128013 -2.758219 -0.698298 0.086692 8.373878 5.453474 -15.558816 -0.771310 -35.180158 -24.226226 -25.498703 3.559361 -38.319594 1.990807 -0.835254 0.009773 6.456327 2.339983 34.684969 0.344830 -9.881741 36.171106 -65.018319 2.014496 44.432224 2.850948 0.000000 -0.000000 0.000000 -0.282497 -1.856761 -45.670525 -2.812837 -7.412357 47.770602 -0.000000 -0.000000 0.000000 11.360700 -25.756320 -101.461511 -4.163764 1.890759 95.228681 
8.750389 42.984363 -15.462698 -19.519445 -20.478715 73.803988 -0.000000 0.000000 0.000000 6.205757 1.318156 23.946134 -0.815670 1.700325 4.753174 0.000000 0.000000 0.000000 0.520704 -1.559331 7.707702 -2.205633 0.221334 -2.572946 -0.794853 0.069730 8.728967 6.058471 -15.859888 -0.947636 -32.093233 -26.508316 -30.548617 3.736282 -38.615030 1.669415 -0.902218 -0.174094 7.069477 2.746476 36.250333 0.502381 -11.686160 34.995873 -65.907724 2.017943 42.097577 2.912647 0.000000 -0.000000 0.000000 -0.387589 -1.876628 -47.399089 -2.829792 -7.415948 47.506965 -0.000000 -0.000000 0.000000 14.017006 -26.783492 -105.940150 -5.061891 1.814057 95.506989 
